# xmcd
#
# Track frame offsets:
#	150
#	16115
#	34313
#
# Disc length: 692 seconds
#
# Revision: 1
# Processed by: cddbd v1.5.2PL0 Copyright (c) Steve Scherf et al.
# Submitted via: EasyCDDAExtractor 12.0.4.1
#
DISCID=1902b203
DTITLE=The Wilkinsons - Fly (Angel Song)
DYEAR=1900
DGENRE=Country
TTITLE0=Fly (the angel version)
TTITLE1=26 cents (special acoustic version)
TTITLE2=26 cents (music track only)
EXTD=Single
EXTT0=
EXTT1=
EXTT2=
PLAYORDER=
